<?xml version="1.0" encoding="UTF-8" standalone="no"?>
<svg
   xmlns:dc="http://purl.org/dc/elements/1.1/"
   xmlns:cc="http://creativecommons.org/ns#"
   xmlns:rdf="http://www.w3.org/1999/02/22-rdf-syntax-ns#"
   xmlns:svg="http://www.w3.org/2000/svg"
   xmlns="http://www.w3.org/2000/svg"
   xmlns:sodipodi="http://sodipodi.sourceforge.net/DTD/sodipodi-0.dtd"
   xmlns:inkscape="http://www.inkscape.org/namespaces/inkscape"
   version="1.1"
   id="svg2734"
   width="1275"
   height="676.5"
   viewBox="0 0 1275 676.5"
   sodipodi:docname="logo.svg"
   inkscape:version="1.0 (4035a4fb49, 2020-05-01)">
  <metadata
     id="metadata2740">
    <rdf:RDF>
      <cc:Work
         rdf:about="">
        <dc:format>image/svg+xml</dc:format>
        <dc:type
           rdf:resource="http://purl.org/dc/dcmitype/StillImage" />
        <dc:title />
      </cc:Work>
    </rdf:RDF>
  </metadata>
  <defs
     id="defs2738" />
  <sodipodi:namedview
     inkscape:document-rotation="0"
     pagecolor="#ffffff"
     bordercolor="#666666"
     borderopacity="1"
     objecttolerance="10"
     gridtolerance="10"
     guidetolerance="10"
     inkscape:pageopacity="0"
     inkscape:pageshadow="2"
     inkscape:window-width="1620"
     inkscape:window-height="1010"
     id="namedview2736"
     showgrid="false"
     inkscape:zoom="0.62169937"
     inkscape:cx="653.52562"
     inkscape:cy="551.32767"
     inkscape:window-x="-6"
     inkscape:window-y="-6"
     inkscape:window-maximized="1"
     inkscape:current-layer="g2742" />
  <g
     inkscape:groupmode="layer"
     inkscape:label="Image"
     id="g2742">
    <path
       style="fill:#ffffff;stroke-width:0.5;fill-opacity:1"
       d="m 1033.8915,656.20181 c -9.3068,-7.6179 -18.6347,-14.57605 -25.75,-19.20825 -11.20478,-7.2945 -23.94458,-13.21055 -28.44788,-13.21055 -1.6542,0 -1.9429,0.25685 -4.3551,3.875 -1.4208,2.13125 -2.7346,4.04565 -2.9194,4.25415 -0.4253,0.48 -7.1268,-2.4205 -16.8888,-7.3096 -83.1391,-41.63895 -129.9515,-117.2009 -132.466,-213.81955 -0.3152,-12.111 0.2796,-26.05389 1.5899,-37.26901 0.6196,-5.30372 0.6131,-6.31383 -0.055,-8.5 -2.7377,-8.96195 -5.0007,-23.83239 -5.8048,-38.14352 -1.7397,-30.96388 3.8701,-65.54519 16.074,-99.08747 5.8682,-16.12875 14.8729,-35.36831 21.2913,-45.49133 11.4549,-18.06663 27.0456,-32.18877 46.0063,-41.6728 33.5956,-16.80434 79.9261,-19.24217 129.57198,-6.81785 l 9.5968,2.40169 3.2574,-0.97726 c 5.2732,-1.58197 17.6124,-4.30728 25.6133,-5.65706 47.0143,-7.9315 87.9837,-2.48931 118.1857,15.69923 15.0262,9.04924 28.6961,22.52229 38.317,37.76538 13.2905,21.05662 26.8305,57.27106 32.6214,87.25 6.2444,32.32674 5.8189,67.01012 -1.1375,92.75 -1.1893,4.40057 -1.2009,4.62705 -0.5247,10.25 5.2621,43.75355 -1.526,93.83328 -18.0274,133 -19.9477,47.3463 -53.6075,84.95885 -99.7657,111.48155 -5.3103,3.05135 -28.9089,15.01845 -29.6156,15.01845 -0.1307,0 -1.5213,-2.025 -3.0903,-4.5 -3.2782,-5.1712 -3.3771,-5.20875 -9.0784,-3.44785 -11.7668,3.6344 -28.0879,13.925 -49.24,31.04615 -4.0102,3.24595 -7.4977,5.8891 -7.75,5.87365 -0.2523,-0.0155 -3.4963,-2.51435 -7.2088,-5.55315 z m 13.75,-31.198 c 17.7503,-13.1541 32.4284,-21.17775 45.25,-24.7353 3.3792,-0.9376 5.5306,-1.185 10.5,-1.20735 6.1547,-0.0275 7.6682,0.26315 12.5085,2.40395 0.4732,0.2093 3.6296,-1.26105 8.3929,-3.9097 66.5714,-37.0166 104.1073,-97.45055 109.6392,-176.5224 1.0875,-15.54378 -0.043,-41.53035 -2.2676,-52.14498 -0.595,-2.83844 -0.5692,-3.38847 0.2613,-5.57429 2.5791,-6.78763 5.032,-19.79216 6.0033,-31.82748 0.7295,-9.03996 0.3203,-30.91223 -0.7335,-39.20325 -3.3992,-26.74465 -10.1517,-50.45308 -21.7884,-76.5 -7.2281,-16.17883 -13.8188,-26.3683 -22.9831,-35.53259 -15.9545,-15.95448 -35.9867,-24.91609 -63.2826,-28.31003 -7.9712,-0.99114 -27.8464,-1.11302 -36.5,-0.22383 -14.4184,1.48155 -32.0992,4.87123 -43.6135,8.36136 -3.0939,0.9378 -6.5015,1.70509 -7.5725,1.70509 -1.071,0 -5.4351,-1.00107 -9.6981,-2.22459 -22.1763,-6.36487 -49.13148,-9.62123 -69.03238,-8.33956 -10.8124,0.69633 -16.9176,1.56211 -25.3335,3.59253 -29.0307,7.0039 -50.2476,22.60109 -63.5975,46.75252 -10.846,19.62177 -21.1362,48.23816 -25.8793,71.9691 -6.2651,31.34547 -5.437,66.39097 2.0887,88.39828 l 1.1621,3.39828 -1.0915,6.52951 c -1.821,10.89418 -2.4247,19.76315 -2.3942,35.17393 0.02,10.05227 0.2971,17.10729 0.904,23 7.8196,75.9331 45.7566,133.1332 112.1985,169.1687 l 4.6409,2.517 1.8591,-0.7869 c 3.4406,-1.4562 6.8363,-2.1369 10.6902,-2.14285 14.0967,-0.022 32.91118,8.6819 56.67118,26.2167 3.5278,2.60345 6.658,4.5852 6.956,4.4038 0.298,-0.18135 3.0168,-2.1639 6.0418,-4.40565 z M 1036.57,555.28696 c -4.1084,-0.60985 -9.3335,-3.27025 -21.9285,-11.1651 -16.77098,-10.5125 -29.36298,-21.2055 -34.04238,-28.90855 -3.2366,-5.32805 -3.9464,-7.9496 -3.975,-14.6803 l -0.025,-6 -5.4115,-5.25 c -14.2939,-13.8671 -23.5972,-29.24583 -27.0712,-44.75 -0.6468,-2.8866 -0.9186,-6.40345 -0.9767,-12.63459 l -0.08,-8.63459 -4.0545,-2.77389 c -16.0738,-10.99688 -28.5816,-26.50763 -33.6322,-41.70693 -5.3725,-16.1676 -4.2883,-40.41626 3.0889,-69.08744 l 2.0166,-7.83744 -3.589,-5.41256 c -4.0804,-6.15376 -10.2927,-18.50122 -12.2497,-24.34778 -3.2018,-9.56488 -4.4458,-20.37089 -3.3129,-28.77735 0.6854,-5.08673 3.2938,-12.93149 5.6158,-16.88984 2.3017,-3.92389 8.0296,-9.54295 11.7172,-11.49465 12.5285,-6.63073 30.0447,-4.63724 51.0298,5.80761 4.374,2.17704 9.5649,4.99751 11.5355,6.26772 3.5088,2.26178 3.7153,2.32422 10,3.02318 22.64918,2.51897 40.08708,6.39914 54.22228,12.06517 l 4.305,1.72567 6.195,-2.49171 c 15.0392,-6.04906 33.78,-10.29627 54.5993,-12.37387 l 8.4759,-0.84583 4.5599,-2.75452 c 10.101,-6.10186 22.3474,-11.12983 31.9859,-13.13249 5.9358,-1.23331 14.5702,-1.4505 19.0424,-0.47899 6.5545,1.42384 13.2559,5.31229 17.4989,10.15372 2.9182,3.32975 6.4062,10.38279 7.8539,15.8814 1.4946,5.67646 1.6286,17.59134 0.2699,24 -2.3231,10.95751 -8.1536,24.27306 -15.4955,35.38821 l -3.6705,5.55688 1.6254,7.5674 c 3.4842,16.22077 4.9635,31.37131 4.539,46.48751 -0.3914,13.93639 -1.7577,19.81319 -7.1493,30.75 -6.0872,12.34793 -16.972,24.38047 -30.1903,33.37387 l -3.75,2.5514 v 8.03736 c 0,9.0187 -0.5274,12.46298 -3.1061,20.28737 -4.2398,12.86415 -12.5158,25.3185 -24.9192,37.5 l -5.3457,5.25 -0.08,6 c -0.09,6.76515 -0.6481,8.8268 -3.8998,14.41175 -5.6008,9.6197 -23.4903,23.67745 -46.2901,36.37515 -6.9696,3.8815 -10.5316,4.76855 -15.9307,3.96705 z m 9.1739,-29.0624 c 6.0834,-3.6705 14.3301,-9.1025 19.1476,-12.6123 6.6077,-4.814 13,-10.973 13,-12.52545 0,-1.11375 -4.3947,-2.79375 -10.5,-4.01385 -10.6324,-2.1249 -22.1981,-6.54485 -27.4721,-10.49885 -0.9472,-0.7101 -1.9194,-1.2911 -2.1604,-1.2911 -0.2411,0 -1.8286,0.98597 -3.5279,2.19105 -5.6064,3.97592 -12.019,6.69631 -21.3754,9.06805 -2.7489,0.6968 -6.4376,1.9768 -8.1971,2.84445 -3.1676,1.56205 -3.1924,1.59045 -2.5225,2.88605 0.9432,1.8239 7.1869,7.65095 12.2554,11.4376 7.0795,5.289 23.888,16.0728 25.0525,16.0728 0.2212,0 3.0561,-1.6013 6.2999,-3.55845 z m -36.7489,-46.15222 c 7.7031,-1.9826 14.7795,-4.81173 16.8326,-6.72963 1.1336,-1.0589 1.5692,-2.09737 2.0809,-4.96045 l 0.6471,-3.62118 8.994,0.13597 8.994,0.13596 0.8738,3.72001 c 0.9283,3.9522 1.2581,4.36669 4.9741,6.25022 4.3734,2.21671 16.8957,5.75748 23.1062,6.53344 l 2.6809,0.33496 4.4814,-3.46854 c 5.9616,-4.61411 15.2271,-14.30985 19.1497,-20.03883 7.4386,-10.86421 10.5556,-21.60835 9.0845,-31.31369 -0.3279,-2.16282 -1.4905,-6.72994 -2.5836,-10.14915 -1.0931,-3.41922 -1.8784,-6.32574 -1.7452,-6.45893 0.1331,-0.1332 3.0495,-1.54374 6.4807,-3.13453 19.7828,-9.17167 33.797,-23.76073 37.9231,-39.47827 1.3209,-5.03237 1.7354,-16.09894 0.9664,-25.80795 -1.2872,-16.24991 -4.3489,-31.62066 -9.2602,-46.48874 -3.5652,-10.79276 -7.0341,-18.51033 -10.998,-24.46764 -4.1319,-6.20991 -12.0538,-13.37433 -18.273,-16.52585 l -2.6957,-1.36602 -6.1412,0.5774 c -17.504,1.64574 -34.8122,5.37313 -47.5862,10.24784 -2.54,0.96931 -7.504,3.2298 -11.0312,5.02332 -3.5271,1.79352 -6.5404,3.26095 -6.6962,3.26095 -0.1557,0 -2.1572,-1.16287 -4.4478,-2.58417 -9.775,-6.06547 -24.1682,-10.33342 -45.16458,-13.39244 -17.7258,-2.58252 -23.1264,-2.53024 -29.0704,0.28138 -4.803,2.27193 -7.1376,5.15134 -11.6385,14.35464 -16.2457,33.21895 -25.5631,76.95473 -20.5609,96.51314 4.0763,15.93812 17.4407,30.09687 37.5558,39.78782 l 6.8281,3.28963 -1.9387,6.44677 c -1.0662,3.54573 -2.1866,8.04524 -2.4898,9.99893 -1.6629,10.71774 3.1234,24.11679 13.0005,36.39482 5.3688,6.67373 18.33638,18.40948 20.34188,18.40948 0.3734,0 3.6699,-0.7698 7.3255,-1.71067 z m 13.8243,-34.68131 c -8.9772,-6.79692 -16.6834,-12.95524 -17.125,-13.68516 -1.3321,-2.20221 -1.0303,-4.29531 0.8972,-6.22286 l 1.7,-1.7 h 31.35 31.35 l 1.7,1.7 c 2.1439,2.14392 2.3033,4.50634 0.4524,6.70605 -1.3131,1.56047 -32.8989,25.60624 -33.5972,25.57697 -0.2228,-0.009 -7.7502,-5.5781 -16.7274,-12.375 z m -31.71898,-91.39679 c -13.8009,-1.87779 -25.1133,-8.53159 -29.8289,-17.54489 -1.6193,-3.09521 -2.1435,-4.58565 -3.0831,-8.76644 l -0.3034,-1.3501 -2.3717,0.71969 c -1.3044,0.39583 -2.6211,0.72212 -2.9259,0.7251 -0.4658,0.005 -6.2379,-14.03702 -6.2063,-15.09783 0.017,-0.56967 7.3455,-2.70226 12.7605,-3.71324 6.8399,-1.27703 17.9943,-1.28143 23.5,-0.009 8.011,1.85103 15.91478,6.5265 20.45498,12.10006 6.0817,7.46585 9.0819,16.12027 9.6551,27.85069 l 0.2871,5.875 -8.4486,-0.0514 c -4.6467,-0.0283 -10.71718,-0.3601 -13.48978,-0.73735 z m 2.2912,-17.13371 c 0,-0.97917 -4.0253,-6.54411 -5.5711,-7.7019 -3.3684,-2.52301 -8.3112,-4.35682 -11.7779,-4.36969 -1.5841,-0.006 -1.5939,0.009 -1.0485,1.61907 1.5738,4.64595 5.4289,7.79535 11.8809,9.70601 3.9425,1.16749 6.5166,1.46237 6.5166,0.74651 z m 73.13848,12.3694 c 0.5816,-11.26209 3.3515,-19.64485 8.9704,-27.14771 8.4118,-11.23231 23.0707,-16.09639 40.966,-13.59323 5.2573,0.73539 15.5271,3.22929 16.242,3.9442 0.2197,0.21972 -5.03,14.54076 -5.5935,15.25883 -0.069,0.0875 -1.2997,-0.18991 -2.7358,-0.61637 -2.9307,-0.87034 -3.4876,-0.72827 -3.4876,0.88978 0,4.01607 -5.1071,13.14601 -9.2547,16.54469 -8.6544,7.09164 -17.45,9.65858 -34.6981,10.12643 l -10.7029,0.29031 z m 24.1314,-12.7162 c 7.5045,-1.93722 12.3908,-5.56098 13.7125,-10.16938 0.4378,-1.52626 0.4102,-1.56134 -1.2227,-1.56134 -4.3718,0 -11.4701,3.46475 -14.1897,6.92616 -1.3468,1.71422 -3.07,4.68847 -3.07,5.29901 0,0.47619 1.6875,0.30127 4.7699,-0.49445 z m 72.1392,-69.61498 c 2.4555,-6.43719 3.2695,-10.40953 3.3023,-16.11574 0.052,-8.95456 -2.5967,-14.37566 -7.1248,-14.58485 -5.2364,-0.24192 -9.5704,0.59555 -16.629,3.21328 l -4.2924,1.59185 5.5815,5.51486 c 6.1233,6.0501 10.2436,11.77457 14.3156,19.88913 1.357,2.70406 2.6708,4.79064 2.9197,4.63685 0.2488,-0.1538 1.116,-2.01921 1.9271,-4.14538 z m -239.68598,0.50926 c 4.8288,-11.27292 10.3238,-20.53987 14.7389,-24.85621 1.3959,-1.36465 2.538,-2.64861 2.538,-2.85324 0,-0.58723 -7.7614,-2.88531 -11.568,-3.42518 -9.2109,-1.30634 -12.6065,2.46092 -12.6277,14.00963 -0.01,4.45289 0.2392,6.62852 1.0964,9.64442 1.2689,4.46437 3.6804,10.85558 4.096,10.85558 0.1544,0 0.9313,-1.51875 1.7264,-3.375 z m -888.72311,119.375 v -235 h 13.25 13.25 v 222.25 222.25 h 136 136 v 12.75 12.75 h -149.25 -149.25 z m 396.5,0 v -235 h 153.75 153.75 v 12.75 12.75 h -140.75 -140.75 v 96.5 96.5 h 126 126 v 12.75 12.75 h -126 -126 v 100.25 100.25 h 145.75 145.75 v 12.75 12.75 h -158.75 -158.75 z M 890.84152,80.780908 c -4.5992,-0.99215 -11.3456,-3.42433 -13.5381,-4.88068 l -1.3381,-0.8888 1.6565,-3.73921 c 0.9112,-2.05656 2.2344,-5.03799 2.9406,-6.6254 l 1.2839,-2.88619 3.3976,1.71598 c 5.8696,2.96451 9.6883,3.91865 16.6476,4.15959 5.7901,0.20045 6.4155,0.13103 8.4994,-0.94341 3.9083,-2.01504 4.0214,-5.63271 0.2425,-7.75647 -1.0955,-0.61572 -4.9169,-1.81538 -8.4919,-2.66591 -11.9197,-2.83582 -16.2547,-4.58844 -20.0873,-8.1212 -2.7779,-2.5606 -3.9771,-4.84911 -4.6143,-8.80581 -1.3438,-8.34438 2.9127,-16.43786 10.6297,-20.21136 9.4553,-4.62358 24.6171,-4.7158 35.9973,-0.21896 2.159,0.85312 4.0216,1.80153 4.139,2.10759 0.1632,0.42534 -4.4717,12.50567 -5.043,13.14382 -0.065,0.0723 -1.4108,-0.44039 -2.9912,-1.13934 -5.6613,-2.50368 -9.9519,-3.364 -15.782,-3.16445 -4.9288,0.16871 -5.4803,0.28992 -7.1651,1.57503 -3.0889,2.35599 -2.974,5.35556 0.2817,7.35265 1.911,1.17225 3.2056,1.56652 10.7196,3.26459 16.0497,3.62705 21.8764,8.07537 22.9335,17.50845 0.6436,5.74319 -2.2259,12.62423 -6.763,16.21773 -2.7133,2.14897 -7.7699,4.4008 -11.7987,5.2543 -4.9899,1.0571 -16.2936,0.92589 -21.7562,-0.25254 z M 29.89151,56.033008 v -24.75 h -9.75 -9.75 v -7.25 -7.25 h 28.5 28.5 v 7.25 7.25 h -9.75 -9.75 v 24.75 24.75 h -9 -9 z m 92.5,-7.25 v -32 h 9 9 v 12 12 h 12.5 12.5 v -12 -12 h 9 9 v 32 32 h -9 -9 v -12.5 -12.5 h -12.5 -12.5 v 12.5 12.5 h -9 -9 z m 122,0 v -32 h 25.25 25.25 v 7 7 h -16.25 -16.25 v 5.25 5.25 h 14.25 14.25 v 7 7 h -14.25 -14.25 v 5.75 5.75 h 16.75 16.75 v 7 7 h -25.75 -25.75 z m 185,0 v -32 h 9 9 v 24.75 24.75 h 15.25 15.25 v 7.25 7.25 h -24.25 -24.25 z m 96.88705,31.0859 c 0.1996,-0.51485 6.55045,-14.92331 14.11295,-32.01881 l 13.75,-31.08273 8.98455,0.13282 8.9845,0.13282 14.12835,31.75 c 7.7706,17.4625 14.1338,31.80625 14.1405,31.875 0.007,0.0688 -4.23815,0.125 -9.43295,0.125 h -9.445 l -2.4599,-6.125 -2.4599,-6.125 h -13.6488 -13.6488 l -2.3921,6 -2.39215,6 -9.2921,0.13599 c -8.9052,0.13033 -9.277,0.097 -8.92915,-0.80009 z m 44.3847,-25.9609 c -2.45835,-6.41594 -7.53885,-18.62317 -7.74825,-18.6172 -0.2019,0.006 -6.59765,15.33702 -7.94015,19.03332 -0.0968,0.26648 3.22755,0.45888 7.9285,0.45888 7.50405,0 8.07065,-0.0639 7.7599,-0.875 z m 83.22825,-5.125 v -32 h 8.75 8.75 l 0.0639,3.875 c 0.035,2.13125 0.20385,7.96097 0.375,12.95492 l 0.3111,9.07992 12.1508,-12.95492 12.1508,-12.95492 h 9.99305 9.993 l -12.14385,13.13792 c -6.6791,7.22586 -12.55685,13.62117 -13.06175,14.21182 -0.912,1.06698 -0.83065,1.18679 12.625,18.58557 7.44865,9.63141 13.54295,17.6361 13.54295,17.78818 0,0.15208 -4.66875,0.27465 -10.375,0.27237 l -10.375,-0.004 -8.5,-10.77608 c -4.675,-5.92685 -8.80045,-11.15623 -9.16765,-11.62086 -0.60175,-0.7614 -1.00875,-0.4747 -4.12435,2.90523 l -3.45665,3.75 v 7.875 7.875 h -8.75 -8.75 v -32 z m 116.5,0 v -32 h 25.25001 25.25 v 7 7 h -16.25 -16.25001 v 5.25 5.25 h 14.25001 14.25 v 7 7 h -14.25 -14.25001 v 5.75 5.75 h 16.75001 16.75 v 7 7 h -25.75 -25.75001 z m 217.50001,0 v -32 h 9 8.99998 v 32 32 h -8.99998 -9 z m 79.49998,0 v -32 l 16.875,0.01 c 9.2813,0.005 18.45,0.2343 20.375,0.50857 8.17,1.16401 14.3926,4.14406 19.7979,9.48141 6.114,6.03703 8.6099,12.42425 8.5968,22.00012 -0.01,6.07424 -0.9097,10.06547 -3.3819,14.97467 -4.4552,8.84687 -13.75,14.87375 -25.424,16.48538 -2.1511,0.29698 -11.3199,0.53995 -20.375,0.53995 h -16.4638 z m 36.1697,16.48846 c 4.1532,-1.28281 8.1557,-4.76545 9.8876,-8.6034 1.0087,-2.23541 1.1893,-3.4313 1.1909,-7.88506 0,-4.61753 -0.1554,-5.5853 -1.3035,-8.03329 -0.718,-1.53081 -2.1805,-3.6345 -3.25,-4.67487 -3.9507,-3.84288 -7.3343,-4.77787 -17.3197,-4.7859 l -7.375,-0.006 v 17.5 17.5 h 7.4474 c 6.0631,0 8.056,-0.18801 10.7223,-1.01154 z m 87.3303,-16.48846 v -32 h 25.25 25.25 v 7 7 h -16.25 -16.25 v 5.25 5.25 h 14.25 14.25 v 7 7 h -14.25 -14.25 v 5.75 5.75 h 16.75 16.75 v 7 7 h -25.75 -25.75 z"
       id="path3307" />
  </g>
</svg>
